#!OML:ASF E:\Mandelcareful walks\Project 1\Capture day 1\Session 1\Subject1.ASF
:FULLY-SPECIFIED
:DEGREES
586
root 5.38776 16.8722 0.0478581 -141.084 -81.5971 141.855
lowerback -2.33606 0.237421 -7.04509
upperback 2.90056 0.615233 -0.838437
thorax 4.26421 0.0783828 3.1129
lowerneck -18.0865 -7.15735 -11.5096
upperneck 27.9114 -7.41518 0.796456
head 12.8399 -4.57376 0.956112
rclavicle -7.92033e-015 -2.23136e-014
rhumerus -27.9672 -7.22143 -83.1723
rradius 26.5602
rwrist -6.50123
rhand -7.9724 -31.2413
rfingers 7.12502
rthumb 17.9354 -60.4343
lclavicle -7.92033e-015 -2.23136e-014
lhumerus -25.9846 4.11895 88.3495
lradius 21.9364
lwrist 3.59123
lhand -20.5562 -12.5694
lfingers 7.12502
lthumb 5.80288 17.3311
rfemur 2.1982 -0.709869 4.7445
rtibia 7.38996
rfoot -7.88188 -19.3765
rtoes -5.47977
lfemur -4.1224 3.3723 -23.4175
ltibia 24.5416
lfoot -21.4258 15.5765
ltoes 11.127
587
root 5.40803 16.8802 0.0145614 -141.044 -81.9032 141.906
lowerback -2.0276 0.259793 -6.82037
upperback 2.79644 0.605468 -0.814293
thorax 3.98079 0.0927125 3.00926
lowerneck -18.0666 -7.2173 -11.5221
upperneck 28.0094 -7.50977 0.804956
head 12.8838 -4.61885 0.943343
rclavicle -8.34896e-015 4.37326e-015
rhumerus -27.9972 -7.34854 -83.1302
rradius 26.4694
rwrist -6.43649
rhand -7.92935 -31.0666
rfingers 7.12502
rthumb 17.9768 -60.2558
lclavicle -8.34896e-015 4.37326e-015
lhumerus -26.0577 4.33138 88.2438
lradius 21.9782
lwrist 3.11794
lhand -21.7226 -13.2132
lfingers 7.12502
lthumb 4.67661 16.7152
rfemur 1.72009 -0.980347 5.10655
rtibia 8.14379
rfoot -8.24025 -19.2549
rtoes -5.12515
lfemur -4.41896 3.24017 -23.0661
ltibia 24.6451
lfoot -21.2251 15.5923
ltoes 10.4348
588
root 5.42292 16.8776 -0.0268165 -141.03 -82.2535 141.886
lowerback -1.91104 0.280522 -6.65379
upperback 2.86687 0.618297 -0.768282
thorax 3.98683 0.101464 2.96378
lowerneck -18.109 -7.26265 -11.3833
upperneck 27.9694 -7.58497 0.734472
head 12.8704 -4.64275 0.880644
rclavicle 9.28076e-015 2.6339e-015
rhumerus -27.9359 -7.29205 -83.1755
rradius 26.5438
rwrist -6.55065
rhand -8.17551 -30.9171
rfingers 7.12502
rthumb 17.74 -60.1278
lclavicle 9.28076e-015 2.6339e-015
lhumerus -25.9397 4.41659 88.2092
lradius 22.0252
lwrist 3.09675
lhand -21.9655 -13.3028
lfingers 7.12502
lthumb 4.44213 16.6306
rfemur 1.34175 -1.26471 5.5181
rtibia 8.94372
rfoot -8.51929 -19.1759
rtoes -5.0823
lfemur -4.51529 3.22322 -22.6505
ltibia 24.6653
lfoot -20.9615 15.4316
ltoes 9.58725
589
root 5.43012 16.8679 -0.0689323 -139.444 -82.4339 140.24
lowerback -1.78081 0.258259 -6.80676
upperback 2.9039 0.583051 -0.737789
thorax 3.95465 0.0785118 3.07818
lowerneck -18.1159 -7.2775 -11.461
upperneck 27.9975 -7.59128 0.767019
head 12.8898 -4.64972 0.90347
rclavicle -1.19022e-014 2.73329e-015
rhumerus -27.9397 -7.22204 -83.1423
rradius 26.5967
rwrist -6.49951
rhand -8.30472 -30.9253
rfingers 7.12502
rthumb 17.6156 -60.1473
lclavicle -1.19022e-014 2.73329e-015
lhumerus -25.961 4.51723 88.2654
lradius 22.1063
lwrist 3.39836
lhand -21.6056 -12.8063
lfingers 7.12502
lthumb 4.78961 17.1196
rfemur 1.0745 -1.54019 5.59739
rtibia 9.63189
rfoot -8.79121 -19.1295
rtoes -5.34112
lfemur -4.52202 3.14602 -22.5296
ltibia 24.7278
lfoot -20.9049 15.1947
ltoes 9.69513
590
root 5.43406 16.8635 -0.107801 -136.265 -82.4943 137.018
lowerback -1.50375 0.200947 -7.12904
upperback 2.79047 0.489519 -0.77941
thorax 3.68876 0.0343756 3.20851
lowerneck -17.8598 -7.2061 -11.614
upperneck 27.9648 -7.53268 0.933376
head 12.835 -4.62272 1.01123
rclavicle -5.5287e-016 -1.00386e-014
rhumerus -28.0743 -7.201 -83.0621
rradius 26.5976
rwrist -6.32747
rhand -8.18874 -30.9231
rfingers 7.12502
rthumb 17.7272 -60.135
lclavicle -5.5287e-016 -1.00386e-014
lhumerus -26.3476 4.69523 88.2638
lradius 22.3117
lwrist 3.41969
lhand -21.5024 -12.7325
lfingers 7.12502
lthumb 4.88926 17.1911
rfemur 0.767779 -1.8706 5.39074
rtibia 10.3993
rfoot -9.17417 -19.0732
rtoes -5.10947
lfemur -4.54725 3.05237 -22.6639
ltibia 24.7173
lfoot -20.731 15.0472
ltoes 9.6726
591
root 5.44016 16.8651 -0.148099 -134.077 -82.6703 134.777
lowerback -1.27719 0.208034 -7.20021
upperback 2.75854 0.479688 -0.808644
thorax 3.5281 0.0337544 3.21599
lowerneck -17.7061 -7.2682 -11.6942
upperneck 27.9788 -7.63755 0.977793
head 12.8234 -4.6742 1.0272
rclavicle -6.42323e-015 -1.68967e-015
rhumerus -28.0978 -7.23168 -82.9958
rradius 26.5731
rwrist -6.28778
rhand -8.01519 -30.8684
rfingers 7.12502
rthumb 17.8942 -60.0652
lclavicle -6.42323e-015 -1.68967e-015
lhumerus -26.5767 4.61403 88.292
lradius 22.4859
lwrist 3.19429
lhand -21.3942 -12.8085
lfingers 7.12502
lthumb 4.99373 17.1127
rfemur 0.483676 -2.24555 5.41431
rtibia 11.1871
rfoot -9.63634 -18.9736
rtoes -4.35157
lfemur -4.57995 3.07728 -22.5803
ltibia 24.6535
lfoot -20.3064 14.9676
ltoes 8.71355
592
root 5.44479 16.8678 -0.18978 -132.881 -82.938 133.539
lowerback -1.42699 0.224319 -7.07602
upperback 2.99849 0.518754 -0.802894
thorax 3.85975 0.0382822 3.15535
lowerneck -17.8271 -7.3945 -11.7502
upperneck 27.8961 -7.80182 1.07886
head 12.834 -4.73019 1.04332
rclavicle -1.57972e-014 -1.24737e-014
rhumerus -27.7361 -7.2347 -83.0292
rradius 26.5555
rwrist -6.3757
rhand -7.88264 -31.1206
rfingers 7.12502
rthumb 18.0218 -60.3057
lclavicle -1.57972e-014 -1.24737e-014
lhumerus -26.1746 4.48069 88.348
lradius 22.41
lwrist 3.08335
lhand -21.0953 -12.5613
lfingers 7.12502
lthumb 5.28232 17.3529
rfemur 0.276162 -2.54217 5.6417
rtibia 11.806
rfoot -10.059 -18.929
rtoes -3.90956
lfemur -4.58909 3.02976 -22.3122
ltibia 24.6211
lfoot -20.0823 14.8336
ltoes 8.17885
593
root 5.45081 16.8661 -0.235253 -131.057 -83.1084 131.68
lowerback -0.949781 0.220808 -7.15916
upperback 2.76742 0.465616 -0.780395
thorax 3.35308 0.0329157 3.21981
lowerneck -17.6681 -7.36542 -11.8926
upperneck 28.1448 -7.79343 1.17833
head 12.9152 -4.7423 1.10622
rclavicle 2.70223e-015 8.79622e-015
rhumerus -28.1944 -7.03904 -82.9648
rradius 26.8126
rwrist -6.48506
rhand -7.7991 -31.4169
rfingers 7.12502
rthumb 18.1021 -60.5945
lclavicle 2.70223e-015 8.79622e-015
lhumerus -26.6234 4.48987 88.3621
lradius 22.5387
lwrist 3.29302
lhand -21.024 -12.3667
lfingers 7.12502
lthumb 5.35113 17.5457
rfemur 0.169807 -2.7653 5.77342
rtibia 12.2019
rfoot -10.2372 -18.9291
rtoes -4.04684
lfemur -4.61748 2.91165 -22.156
ltibia 24.6783
lfoot -20.1413 14.6142
ltoes 8.28921
594
root 5.45899 16.8639 -0.280769 -128.883 -83.2794 129.502
lowerback -1.55823 0.175622 -7.16657
upperback 3.33673 0.47871 -0.825025
thorax 4.29361 -0.00983978 3.18176
lowerneck -18.0906 -7.42937 -11.8593
upperneck 27.8593 -7.87131 1.43603
head 12.899 -4.71454 1.17799
rclavicle -7.54139e-015 3.39922e-014
rhumerus -27.2447 -7.26082 -83.1064
rradius 26.7792
rwrist -6.41131
rhand -7.98607 -31.1544
rfingers 7.12502
rthumb 17.9222 -60.3486
lclavicle -7.54139e-015 3.39922e-014
lhumerus -25.7841 4.60244 88.3524
lradius 22.5881
lwrist 3.40544
lhand -21.173 -12.4029
lfingers 7.12502
lthumb 5.20729 17.5131
rfemur 0.0922213 -3.04173 5.89896
rtibia 12.5059
rfoot -10.3128 -18.9209
rtoes -4.24131
lfemur -4.75037 2.83489 -22.0156
ltibia 24.7693
lfoot -20.0899 14.4312
ltoes 7.82747
595
root 5.46461 16.8655 -0.32727 -128.195 -83.6442 128.883
lowerback -1.15837 0.203291 -6.96485
upperback 3.02617 0.463407 -0.744977
thorax 3.74161 0.0164503 3.14927
lowerneck -17.7037 -7.37939 -11.921
upperneck 28.0568 -7.87654 1.47524
head 12.9061 -4.73546 1.21147
rclavicle -2.3233e-015 5.06901e-015
rhumerus -27.7443 -7.29456 -82.9663
rradius 26.7705
rwrist -6.39266
rhand -8.05258 -30.7517
rfingers 7.12502
rthumb 17.8582 -59.9518
lclavicle -2.3233e-015 5.06901e-015
lhumerus -26.268 4.45414 88.3894
lradius 22.5364
lwrist 3.5679
lhand -21.2635 -12.4415
lfingers 7.12502
lthumb 5.11997 17.4766
rfemur -0.151721 -3.23859 6.34909
rtibia 13.0043
rfoot -10.5952 -18.9811
rtoes -3.93656
lfemur -4.88928 2.78404 -21.5624
ltibia 24.7752
lfoot -19.8994 14.2242
ltoes 7.267
596
root 5.46553 16.8656 -0.379713 -128.896 -84.0463 129.556
lowerback -1.1202 0.247583 -6.67029
upperback 3.07426 0.510178 -0.610419
thorax 3.76426 0.0453154 3.12613
lowerneck -17.764 -7.43603 -12.0569
upperneck 28.2413 -7.95059 1.58019
head 13.013 -4.77299 1.25509
rclavicle -1.05791e-014 -6.65929e-015
rhumerus -27.6691 -7.19582 -82.881
rradius 26.7423
rwrist -6.57707
rhand -7.94116 -30.8258
rfingers 7.12502
rthumb 17.9655 -60.0161
lclavicle -1.05791e-014 -6.65929e-015
lhumerus -26.1991 4.31505 88.5088
lradius 22.4605
lwrist 3.64773
lhand -21.1421 -12.2755
lfingers 7.12502
lthumb 5.23719 17.6398
rfemur -0.322963 -3.20372 6.96691
rtibia 13.51
rfoot -10.9325 -19.1859
rtoes -3.54968
lfemur -4.81715 2.73175 -20.9488
ltibia 24.7365
lfoot -19.8312 14.0073
ltoes 7.3253
597
root 5.47159 16.8611 -0.416319 -122.898 -83.9393 123.566
lowerback -1.01422 0.205023 -6.93282
upperback 3.07125 0.454096 -0.786867
thorax 3.7081 0.0127287 3.08659
lowerneck -17.9404 -7.41285 -12.0132
upperneck 28.5492 -7.94982 1.66742
head 13.1777 -4.76367 1.27175
rclavicle -4.87644e-015 -4.67144e-015
rhumerus -27.607 -7.13183 -82.8902
rradius 26.7593
rwrist -6.75761
rhand -7.88989 -31.1457
rfingers 7.12502
rthumb 18.0148 -60.3314
lclavicle -4.87644e-015 -4.67144e-015
lhumerus -26.3269 4.46827 88.4471
lradius 22.5849
lwrist 3.38317
lhand -21.0704 -12.4273
lfingers 7.12502
lthumb 5.30633 17.4863
rfemur -0.549655 -4.11484 6.49287
rtibia 14.0805
rfoot -11.0799 -18.6409
rtoes -4.32316
lfemur -4.81199 2.422 -21.3294
ltibia 24.6288
lfoot -19.754 13.8968
ltoes 7.53517
